<mxfile host="Electron" modified="2023-08-16T02:56:59.471Z" agent="Mozilla/5.0 (Windows NT 10.0; Win64; x64) AppleWebKit/537.36 (KHTML, like Gecko) draw.io/21.6.8 Chrome/114.0.5735.289 Electron/25.5.0 Safari/537.36" etag="q3MORkNmJ-ooN9e2mrCO" version="21.6.8" type="device">
  <diagram name="Page-1" id="oXJqQtW-Z9CdaKA_W9ZZ">
    <mxGraphModel dx="1232" dy="1180" grid="1" gridSize="10" guides="1" tooltips="1" connect="1" arrows="1" fold="1" page="1" pageScale="1" pageWidth="850" pageHeight="1100" math="0" shadow="0">
      <root>
        <mxCell id="0" />
        <mxCell id="1" parent="0" />
        <mxCell id="w2HOxnU2GR0AyzulczZv-25" value="" style="endArrow=none;dashed=1;html=1;rounded=0;fillColor=#a20025;strokeColor=#6F0000;" parent="1" edge="1">
          <mxGeometry width="50" height="50" relative="1" as="geometry">
            <mxPoint x="240" y="300" as="sourcePoint" />
            <mxPoint x="280" y="300" as="targetPoint" />
          </mxGeometry>
        </mxCell>
        <mxCell id="w2HOxnU2GR0AyzulczZv-26" value="" style="endArrow=none;dashed=1;html=1;rounded=0;fillColor=#a20025;strokeColor=#6F0000;" parent="1" edge="1">
          <mxGeometry width="50" height="50" relative="1" as="geometry">
            <mxPoint x="240" y="260" as="sourcePoint" />
            <mxPoint x="280" y="260" as="targetPoint" />
          </mxGeometry>
        </mxCell>
        <mxCell id="w2HOxnU2GR0AyzulczZv-27" value="" style="endArrow=none;html=1;rounded=0;fillColor=#60a917;strokeColor=#2D7600;" parent="1" edge="1">
          <mxGeometry width="50" height="50" relative="1" as="geometry">
            <mxPoint x="270" y="290" as="sourcePoint" />
            <mxPoint x="250" y="310" as="targetPoint" />
          </mxGeometry>
        </mxCell>
        <mxCell id="w2HOxnU2GR0AyzulczZv-28" value="Exception path" style="text;html=1;strokeColor=none;fillColor=none;align=left;verticalAlign=middle;whiteSpace=wrap;rounded=0;" parent="1" vertex="1">
          <mxGeometry x="280" y="240" width="90" height="20" as="geometry" />
        </mxCell>
        <mxCell id="w2HOxnU2GR0AyzulczZv-30" value="" style="swimlane;startSize=0;" parent="1" vertex="1">
          <mxGeometry x="240" y="280" width="240" height="40" as="geometry" />
        </mxCell>
        <mxCell id="w2HOxnU2GR0AyzulczZv-34" value="Critical only exception path" style="text;html=1;strokeColor=none;fillColor=none;align=left;verticalAlign=middle;whiteSpace=wrap;rounded=0;" parent="w2HOxnU2GR0AyzulczZv-30" vertex="1">
          <mxGeometry x="40" width="150" height="20" as="geometry" />
        </mxCell>
        <mxCell id="w2HOxnU2GR0AyzulczZv-36" value="Stack path of critical exceptions that lead to the program being unable to continue." style="text;html=1;strokeColor=none;fillColor=none;align=left;verticalAlign=middle;whiteSpace=wrap;rounded=0;fontSize=8;" parent="w2HOxnU2GR0AyzulczZv-30" vertex="1">
          <mxGeometry x="40" y="20" width="200" height="20" as="geometry" />
        </mxCell>
        <mxCell id="w2HOxnU2GR0AyzulczZv-31" value="" style="swimlane;startSize=0;" parent="1" vertex="1">
          <mxGeometry x="240" y="240" width="240" height="40" as="geometry" />
        </mxCell>
        <mxCell id="w2HOxnU2GR0AyzulczZv-35" value="Stack path of thrown exceptions" style="text;html=1;strokeColor=none;fillColor=none;align=left;verticalAlign=middle;whiteSpace=wrap;rounded=0;fontSize=8;" parent="w2HOxnU2GR0AyzulczZv-31" vertex="1">
          <mxGeometry x="40" y="20" width="200" height="20" as="geometry" />
        </mxCell>
        <mxCell id="w2HOxnU2GR0AyzulczZv-53" value="" style="endArrow=none;dashed=1;html=1;rounded=0;" parent="1" edge="1">
          <mxGeometry width="50" height="50" relative="1" as="geometry">
            <mxPoint x="240" y="220" as="sourcePoint" />
            <mxPoint x="280" y="220" as="targetPoint" />
          </mxGeometry>
        </mxCell>
        <mxCell id="w2HOxnU2GR0AyzulczZv-55" value="" style="swimlane;startSize=0;" parent="1" vertex="1">
          <mxGeometry x="240" y="200" width="240" height="40" as="geometry" />
        </mxCell>
        <mxCell id="w2HOxnU2GR0AyzulczZv-56" value="Dependency" style="text;html=1;strokeColor=none;fillColor=none;align=left;verticalAlign=middle;whiteSpace=wrap;rounded=0;" parent="w2HOxnU2GR0AyzulczZv-55" vertex="1">
          <mxGeometry x="40" y="10" width="120" height="20" as="geometry" />
        </mxCell>
        <mxCell id="w2HOxnU2GR0AyzulczZv-62" value="" style="endArrow=classic;html=1;rounded=0;" parent="1" edge="1">
          <mxGeometry width="50" height="50" relative="1" as="geometry">
            <mxPoint x="240" y="180" as="sourcePoint" />
            <mxPoint x="280" y="180" as="targetPoint" />
          </mxGeometry>
        </mxCell>
        <mxCell id="w2HOxnU2GR0AyzulczZv-63" value="" style="swimlane;startSize=0;" parent="1" vertex="1">
          <mxGeometry x="240" y="160" width="240" height="40" as="geometry" />
        </mxCell>
        <mxCell id="w2HOxnU2GR0AyzulczZv-64" value="Control flow that does not return" style="text;html=1;strokeColor=none;fillColor=none;align=left;verticalAlign=middle;whiteSpace=wrap;rounded=0;" parent="w2HOxnU2GR0AyzulczZv-63" vertex="1">
          <mxGeometry x="40" y="10" width="200" height="20" as="geometry" />
        </mxCell>
        <mxCell id="w2HOxnU2GR0AyzulczZv-70" value="" style="endArrow=classic;startArrow=classic;html=1;rounded=0;" parent="1" edge="1">
          <mxGeometry width="50" height="50" relative="1" as="geometry">
            <mxPoint x="240" y="140" as="sourcePoint" />
            <mxPoint x="280" y="140" as="targetPoint" />
            <Array as="points" />
          </mxGeometry>
        </mxCell>
        <mxCell id="w2HOxnU2GR0AyzulczZv-71" value="" style="swimlane;startSize=0;" parent="1" vertex="1">
          <mxGeometry x="240" y="120" width="240" height="40" as="geometry" />
        </mxCell>
        <mxCell id="w2HOxnU2GR0AyzulczZv-72" value="Control flow that does return" style="text;html=1;strokeColor=none;fillColor=none;align=left;verticalAlign=middle;whiteSpace=wrap;rounded=0;" parent="w2HOxnU2GR0AyzulczZv-71" vertex="1">
          <mxGeometry x="40" y="5" width="200" height="30" as="geometry" />
        </mxCell>
        <mxCell id="w2HOxnU2GR0AyzulczZv-90" value="" style="swimlane;startSize=0;" parent="1" vertex="1">
          <mxGeometry x="520" y="120" width="360" height="200" as="geometry">
            <mxRectangle x="480" y="90" width="50" height="40" as="alternateBounds" />
          </mxGeometry>
        </mxCell>
        <mxCell id="w2HOxnU2GR0AyzulczZv-86" value="A" style="shape=note;whiteSpace=wrap;html=1;backgroundOutline=1;darkOpacity=0.05;" parent="w2HOxnU2GR0AyzulczZv-90" vertex="1">
          <mxGeometry x="40" y="30" width="80" height="100" as="geometry" />
        </mxCell>
        <mxCell id="w2HOxnU2GR0AyzulczZv-87" value="B" style="shape=note;whiteSpace=wrap;html=1;backgroundOutline=1;darkOpacity=0.05;" parent="w2HOxnU2GR0AyzulczZv-90" vertex="1">
          <mxGeometry x="240" y="30" width="80" height="100" as="geometry" />
        </mxCell>
        <mxCell id="w2HOxnU2GR0AyzulczZv-88" style="edgeStyle=orthogonalEdgeStyle;rounded=0;orthogonalLoop=1;jettySize=auto;html=1;entryX=0;entryY=0.5;entryDx=0;entryDy=0;entryPerimeter=0;dashed=1;" parent="w2HOxnU2GR0AyzulczZv-90" source="w2HOxnU2GR0AyzulczZv-86" target="w2HOxnU2GR0AyzulczZv-87" edge="1">
          <mxGeometry relative="1" as="geometry" />
        </mxCell>
        <mxCell id="w2HOxnU2GR0AyzulczZv-89" value="In this exsample A depends on B" style="text;html=1;strokeColor=none;fillColor=none;align=center;verticalAlign=middle;whiteSpace=wrap;rounded=0;" parent="w2HOxnU2GR0AyzulczZv-90" vertex="1">
          <mxGeometry x="40" y="150" width="280" height="30" as="geometry" />
        </mxCell>
        <mxCell id="w2HOxnU2GR0AyzulczZv-91" value="" style="swimlane;startSize=0;" parent="1" vertex="1">
          <mxGeometry x="920" y="120" width="360" height="200" as="geometry">
            <mxRectangle x="480" y="90" width="50" height="40" as="alternateBounds" />
          </mxGeometry>
        </mxCell>
        <mxCell id="w2HOxnU2GR0AyzulczZv-92" value="A" style="shape=note;whiteSpace=wrap;html=1;backgroundOutline=1;darkOpacity=0.05;" parent="w2HOxnU2GR0AyzulczZv-91" vertex="1">
          <mxGeometry x="40" y="30" width="80" height="100" as="geometry" />
        </mxCell>
        <mxCell id="w2HOxnU2GR0AyzulczZv-93" value="B" style="shape=note;whiteSpace=wrap;html=1;backgroundOutline=1;darkOpacity=0.05;" parent="w2HOxnU2GR0AyzulczZv-91" vertex="1">
          <mxGeometry x="240" y="30" width="80" height="100" as="geometry" />
        </mxCell>
        <mxCell id="w2HOxnU2GR0AyzulczZv-94" style="edgeStyle=orthogonalEdgeStyle;rounded=0;orthogonalLoop=1;jettySize=auto;html=1;entryX=0;entryY=0.5;entryDx=0;entryDy=0;entryPerimeter=0;dashed=1;startArrow=classic;startFill=1;" parent="w2HOxnU2GR0AyzulczZv-91" source="w2HOxnU2GR0AyzulczZv-92" target="w2HOxnU2GR0AyzulczZv-93" edge="1">
          <mxGeometry relative="1" as="geometry" />
        </mxCell>
        <mxCell id="w2HOxnU2GR0AyzulczZv-95" value="A and B are co dependent (this is bad)" style="text;html=1;strokeColor=none;fillColor=none;align=center;verticalAlign=middle;whiteSpace=wrap;rounded=0;" parent="w2HOxnU2GR0AyzulczZv-91" vertex="1">
          <mxGeometry x="40" y="150" width="280" height="30" as="geometry" />
        </mxCell>
        <mxCell id="w2HOxnU2GR0AyzulczZv-113" value="Control and dependency graph" style="swimlane;whiteSpace=wrap;html=1;" parent="1" vertex="1">
          <mxGeometry x="240" y="360" width="1040" height="920" as="geometry" />
        </mxCell>
        <mxCell id="3jPGnn16u3qIRGqG-PNF-4" style="edgeStyle=orthogonalEdgeStyle;rounded=0;orthogonalLoop=1;jettySize=auto;html=1;entryX=0.5;entryY=0;entryDx=0;entryDy=0;entryPerimeter=0;dashed=1;" parent="w2HOxnU2GR0AyzulczZv-113" source="w2HOxnU2GR0AyzulczZv-2" target="3jPGnn16u3qIRGqG-PNF-1" edge="1">
          <mxGeometry relative="1" as="geometry" />
        </mxCell>
        <mxCell id="w2HOxnU2GR0AyzulczZv-2" value="Program.cs" style="shape=note;whiteSpace=wrap;html=1;backgroundOutline=1;darkOpacity=0.05;" parent="w2HOxnU2GR0AyzulczZv-113" vertex="1">
          <mxGeometry x="200" y="400" width="80" height="100" as="geometry" />
        </mxCell>
        <mxCell id="w2HOxnU2GR0AyzulczZv-13" style="edgeStyle=orthogonalEdgeStyle;rounded=0;orthogonalLoop=1;jettySize=auto;html=1;exitX=0;exitY=1;exitDx=0;exitDy=0;exitPerimeter=0;entryX=1;entryY=1;entryDx=0;entryDy=0;entryPerimeter=0;fillColor=#a20025;strokeColor=#6F0000;dashed=1;" parent="w2HOxnU2GR0AyzulczZv-113" source="w2HOxnU2GR0AyzulczZv-3" target="w2HOxnU2GR0AyzulczZv-2" edge="1">
          <mxGeometry relative="1" as="geometry">
            <Array as="points">
              <mxPoint x="380" y="500" />
              <mxPoint x="380" y="500" />
            </Array>
          </mxGeometry>
        </mxCell>
        <mxCell id="3jPGnn16u3qIRGqG-PNF-5" style="edgeStyle=orthogonalEdgeStyle;rounded=0;orthogonalLoop=1;jettySize=auto;html=1;exitX=0.014;exitY=0.712;exitDx=0;exitDy=0;exitPerimeter=0;entryX=0;entryY=0;entryDx=65;entryDy=15;entryPerimeter=0;dashed=1;fillColor=#60a917;strokeColor=#2D7600;" parent="w2HOxnU2GR0AyzulczZv-113" source="w2HOxnU2GR0AyzulczZv-3" target="3jPGnn16u3qIRGqG-PNF-1" edge="1">
          <mxGeometry relative="1" as="geometry">
            <Array as="points">
              <mxPoint x="400" y="471" />
              <mxPoint x="400" y="470" />
              <mxPoint x="380" y="470" />
              <mxPoint x="380" y="520" />
              <mxPoint x="105" y="520" />
            </Array>
          </mxGeometry>
        </mxCell>
        <mxCell id="w2HOxnU2GR0AyzulczZv-3" value="IApplication.cs" style="shape=note;whiteSpace=wrap;html=1;backgroundOutline=1;darkOpacity=0.05;" parent="w2HOxnU2GR0AyzulczZv-113" vertex="1">
          <mxGeometry x="400" y="400" width="80" height="100" as="geometry" />
        </mxCell>
        <mxCell id="w2HOxnU2GR0AyzulczZv-5" style="edgeStyle=orthogonalEdgeStyle;rounded=0;orthogonalLoop=1;jettySize=auto;html=1;entryX=0;entryY=0.5;entryDx=0;entryDy=0;entryPerimeter=0;" parent="w2HOxnU2GR0AyzulczZv-113" source="w2HOxnU2GR0AyzulczZv-2" target="w2HOxnU2GR0AyzulczZv-3" edge="1">
          <mxGeometry relative="1" as="geometry">
            <Array as="points">
              <mxPoint x="390" y="450" />
              <mxPoint x="390" y="450" />
            </Array>
          </mxGeometry>
        </mxCell>
        <mxCell id="w2HOxnU2GR0AyzulczZv-10" style="edgeStyle=orthogonalEdgeStyle;rounded=0;orthogonalLoop=1;jettySize=auto;html=1;exitX=0;exitY=0;exitDx=25;exitDy=0;exitPerimeter=0;entryX=0;entryY=1;entryDx=0;entryDy=0;entryPerimeter=0;fillColor=#a20025;strokeColor=#6F0000;dashed=1;" parent="w2HOxnU2GR0AyzulczZv-113" source="w2HOxnU2GR0AyzulczZv-4" target="w2HOxnU2GR0AyzulczZv-3" edge="1">
          <mxGeometry relative="1" as="geometry" />
        </mxCell>
        <mxCell id="w2HOxnU2GR0AyzulczZv-4" value="&lt;font style=&quot;&quot;&gt;&lt;font style=&quot;font-size: 9px;&quot;&gt;IRandomPicker.cs&lt;br&gt;&lt;/font&gt;(interface)&lt;br&gt;&lt;/font&gt;" style="shape=note;whiteSpace=wrap;html=1;backgroundOutline=1;darkOpacity=0.05;" parent="w2HOxnU2GR0AyzulczZv-113" vertex="1">
          <mxGeometry x="400" y="540" width="80" height="100" as="geometry" />
        </mxCell>
        <mxCell id="w2HOxnU2GR0AyzulczZv-8" style="edgeStyle=orthogonalEdgeStyle;rounded=0;orthogonalLoop=1;jettySize=auto;html=1;exitX=0.5;exitY=1;exitDx=0;exitDy=0;exitPerimeter=0;entryX=0.5;entryY=0;entryDx=0;entryDy=0;entryPerimeter=0;startArrow=classic;startFill=1;" parent="w2HOxnU2GR0AyzulczZv-113" source="w2HOxnU2GR0AyzulczZv-3" target="w2HOxnU2GR0AyzulczZv-4" edge="1">
          <mxGeometry relative="1" as="geometry" />
        </mxCell>
        <mxCell id="w2HOxnU2GR0AyzulczZv-14" value="" style="endArrow=none;html=1;rounded=0;fillColor=#60a917;strokeColor=#2D7600;" parent="w2HOxnU2GR0AyzulczZv-113" edge="1">
          <mxGeometry width="50" height="50" relative="1" as="geometry">
            <mxPoint x="330" y="510" as="sourcePoint" />
            <mxPoint x="350" y="490" as="targetPoint" />
          </mxGeometry>
        </mxCell>
        <mxCell id="w2HOxnU2GR0AyzulczZv-21" value="Picks a random number corresponding to a EventEnum and returns the EventEnum" style="text;html=1;strokeColor=none;fillColor=none;align=center;verticalAlign=middle;whiteSpace=wrap;rounded=0;" parent="w2HOxnU2GR0AyzulczZv-113" vertex="1">
          <mxGeometry x="480" y="570" width="160" height="70" as="geometry" />
        </mxCell>
        <mxCell id="w2HOxnU2GR0AyzulczZv-22" value="Handles the core logic" style="text;html=1;strokeColor=none;fillColor=none;align=center;verticalAlign=middle;whiteSpace=wrap;rounded=0;" parent="w2HOxnU2GR0AyzulczZv-113" vertex="1">
          <mxGeometry x="480" y="460" width="60" height="50" as="geometry" />
        </mxCell>
        <mxCell id="w2HOxnU2GR0AyzulczZv-24" value="Setup and critical error handling" style="text;html=1;strokeColor=none;fillColor=none;align=center;verticalAlign=middle;whiteSpace=wrap;rounded=0;" parent="w2HOxnU2GR0AyzulczZv-113" vertex="1">
          <mxGeometry x="280" y="440" width="60" height="60" as="geometry" />
        </mxCell>
        <mxCell id="w2HOxnU2GR0AyzulczZv-41" value="&lt;font style=&quot;font-size: 10px;&quot;&gt;IEventFactory.cs&lt;/font&gt;" style="shape=note;whiteSpace=wrap;html=1;backgroundOutline=1;darkOpacity=0.05;" parent="w2HOxnU2GR0AyzulczZv-113" vertex="1">
          <mxGeometry x="620" y="400" width="80" height="100" as="geometry" />
        </mxCell>
        <mxCell id="w2HOxnU2GR0AyzulczZv-47" style="edgeStyle=orthogonalEdgeStyle;rounded=0;orthogonalLoop=1;jettySize=auto;html=1;entryX=0;entryY=0.5;entryDx=0;entryDy=0;entryPerimeter=0;startArrow=classic;startFill=1;" parent="w2HOxnU2GR0AyzulczZv-113" source="w2HOxnU2GR0AyzulczZv-3" target="w2HOxnU2GR0AyzulczZv-41" edge="1">
          <mxGeometry relative="1" as="geometry" />
        </mxCell>
        <mxCell id="w2HOxnU2GR0AyzulczZv-99" style="edgeStyle=orthogonalEdgeStyle;rounded=0;orthogonalLoop=1;jettySize=auto;html=1;exitX=0;exitY=0;exitDx=80;exitDy=30;exitPerimeter=0;entryX=-0.018;entryY=0.3;entryDx=0;entryDy=0;entryPerimeter=0;fillColor=#a20025;strokeColor=#6F0000;startArrow=classic;startFill=1;endArrow=none;endFill=0;dashed=1;" parent="w2HOxnU2GR0AyzulczZv-113" source="w2HOxnU2GR0AyzulczZv-3" target="w2HOxnU2GR0AyzulczZv-41" edge="1">
          <mxGeometry relative="1" as="geometry" />
        </mxCell>
        <mxCell id="w2HOxnU2GR0AyzulczZv-43" value="Takes in a EventEnum and creates the corresponding type, constructs it with ResourceProviders and returns it" style="text;html=1;strokeColor=none;fillColor=none;align=center;verticalAlign=middle;whiteSpace=wrap;rounded=0;" parent="w2HOxnU2GR0AyzulczZv-113" vertex="1">
          <mxGeometry x="700" y="430" width="180" height="70" as="geometry" />
        </mxCell>
        <mxCell id="w2HOxnU2GR0AyzulczZv-97" style="edgeStyle=orthogonalEdgeStyle;rounded=0;orthogonalLoop=1;jettySize=auto;html=1;exitX=0;exitY=0;exitDx=0;exitDy=0;exitPerimeter=0;entryX=0.5;entryY=1;entryDx=0;entryDy=0;entryPerimeter=0;fillColor=#a20025;strokeColor=#6F0000;dashed=1;" parent="w2HOxnU2GR0AyzulczZv-113" source="w2HOxnU2GR0AyzulczZv-44" target="w2HOxnU2GR0AyzulczZv-41" edge="1">
          <mxGeometry relative="1" as="geometry">
            <mxPoint x="759.953488372093" y="560" as="targetPoint" />
          </mxGeometry>
        </mxCell>
        <mxCell id="w2HOxnU2GR0AyzulczZv-44" value="&lt;font style=&quot;font-size: 8px;&quot;&gt;ResourceProvider.cs&lt;br&gt;(Abstract)&lt;br&gt;&lt;/font&gt;" style="shape=note;whiteSpace=wrap;html=1;backgroundOutline=1;darkOpacity=0.05;" parent="w2HOxnU2GR0AyzulczZv-113" vertex="1">
          <mxGeometry x="760" y="620" width="80" height="100" as="geometry" />
        </mxCell>
        <mxCell id="w2HOxnU2GR0AyzulczZv-45" value="Loads and returns a value T of IDisposable and handles the disposal of the resource" style="text;html=1;strokeColor=none;fillColor=none;align=center;verticalAlign=middle;whiteSpace=wrap;rounded=0;" parent="w2HOxnU2GR0AyzulczZv-113" vertex="1">
          <mxGeometry x="840" y="660" width="150" height="60" as="geometry" />
        </mxCell>
        <mxCell id="w2HOxnU2GR0AyzulczZv-46" value="" style="endArrow=none;dashed=1;html=1;rounded=0;entryX=0.732;entryY=0.998;entryDx=0;entryDy=0;entryPerimeter=0;endFill=0;startArrow=classic;startFill=1;exitX=0;exitY=0;exitDx=50;exitDy=0;exitPerimeter=0;" parent="w2HOxnU2GR0AyzulczZv-113" source="w2HOxnU2GR0AyzulczZv-44" target="w2HOxnU2GR0AyzulczZv-41" edge="1">
          <mxGeometry width="50" height="50" relative="1" as="geometry">
            <mxPoint x="760" y="620" as="sourcePoint" />
            <mxPoint x="720" y="530" as="targetPoint" />
            <Array as="points">
              <mxPoint x="810" y="540" />
              <mxPoint x="720" y="540" />
              <mxPoint x="680" y="540" />
            </Array>
          </mxGeometry>
        </mxCell>
        <mxCell id="w2HOxnU2GR0AyzulczZv-48" value="" style="shape=card;whiteSpace=wrap;html=1;" parent="w2HOxnU2GR0AyzulczZv-113" vertex="1">
          <mxGeometry x="750" y="780" width="80" height="100" as="geometry" />
        </mxCell>
        <mxCell id="w2HOxnU2GR0AyzulczZv-49" value="" style="shape=card;whiteSpace=wrap;html=1;" parent="w2HOxnU2GR0AyzulczZv-113" vertex="1">
          <mxGeometry x="760" y="780" width="80" height="100" as="geometry" />
        </mxCell>
        <mxCell id="w2HOxnU2GR0AyzulczZv-50" value="" style="shape=card;whiteSpace=wrap;html=1;" parent="w2HOxnU2GR0AyzulczZv-113" vertex="1">
          <mxGeometry x="770" y="780" width="80" height="100" as="geometry" />
        </mxCell>
        <mxCell id="w2HOxnU2GR0AyzulczZv-51" style="edgeStyle=orthogonalEdgeStyle;rounded=0;orthogonalLoop=1;jettySize=auto;html=1;entryX=0;entryY=0;entryDx=30;entryDy=0;entryPerimeter=0;dashed=1;" parent="w2HOxnU2GR0AyzulczZv-113" source="w2HOxnU2GR0AyzulczZv-44" target="w2HOxnU2GR0AyzulczZv-50" edge="1">
          <mxGeometry relative="1" as="geometry" />
        </mxCell>
        <mxCell id="w2HOxnU2GR0AyzulczZv-52" value="Implementors of &lt;br&gt;ResourceProvider.cs, the number of implementations will be expanded as needed" style="text;html=1;strokeColor=none;fillColor=none;align=center;verticalAlign=middle;whiteSpace=wrap;rounded=0;" parent="w2HOxnU2GR0AyzulczZv-113" vertex="1">
          <mxGeometry x="850" y="780" width="130" height="100" as="geometry" />
        </mxCell>
        <mxCell id="w2HOxnU2GR0AyzulczZv-57" value="" style="endArrow=classic;dashed=1;html=1;rounded=0;entryX=0;entryY=0;entryDx=0;entryDy=0;entryPerimeter=0;exitX=0;exitY=0;exitDx=50;exitDy=0;exitPerimeter=0;endFill=1;" parent="w2HOxnU2GR0AyzulczZv-113" source="w2HOxnU2GR0AyzulczZv-3" target="w2HOxnU2GR0AyzulczZv-41" edge="1">
          <mxGeometry width="50" height="50" relative="1" as="geometry">
            <mxPoint x="510" y="440" as="sourcePoint" />
            <mxPoint x="560" y="390" as="targetPoint" />
          </mxGeometry>
        </mxCell>
        <mxCell id="w2HOxnU2GR0AyzulczZv-58" value="" style="endArrow=classic;dashed=1;html=1;rounded=0;entryX=0;entryY=0;entryDx=0;entryDy=0;entryPerimeter=0;exitX=0;exitY=0;exitDx=50;exitDy=0;exitPerimeter=0;endFill=1;" parent="w2HOxnU2GR0AyzulczZv-113" source="w2HOxnU2GR0AyzulczZv-2" target="w2HOxnU2GR0AyzulczZv-3" edge="1">
          <mxGeometry width="50" height="50" relative="1" as="geometry">
            <mxPoint x="300" y="430" as="sourcePoint" />
            <mxPoint x="350" y="380" as="targetPoint" />
          </mxGeometry>
        </mxCell>
        <mxCell id="w2HOxnU2GR0AyzulczZv-59" value="" style="endArrow=none;dashed=1;html=1;rounded=0;entryX=1;entryY=1;entryDx=0;entryDy=0;entryPerimeter=0;exitX=0;exitY=0;exitDx=80;exitDy=30;exitPerimeter=0;endFill=0;startArrow=classic;startFill=1;" parent="w2HOxnU2GR0AyzulczZv-113" source="w2HOxnU2GR0AyzulczZv-4" target="w2HOxnU2GR0AyzulczZv-3" edge="1">
          <mxGeometry width="50" height="50" relative="1" as="geometry">
            <mxPoint x="450" y="530" as="sourcePoint" />
            <mxPoint x="500" y="480" as="targetPoint" />
          </mxGeometry>
        </mxCell>
        <mxCell id="w2HOxnU2GR0AyzulczZv-82" style="edgeStyle=orthogonalEdgeStyle;rounded=0;orthogonalLoop=1;jettySize=auto;html=1;exitX=0.5;exitY=1;exitDx=0;exitDy=0;exitPerimeter=0;entryX=0.5;entryY=0;entryDx=0;entryDy=0;entryPerimeter=0;dashed=1;endArrow=none;endFill=0;startArrow=classic;startFill=1;fillColor=#6a00ff;strokeColor=#3700CC;" parent="w2HOxnU2GR0AyzulczZv-113" source="w2HOxnU2GR0AyzulczZv-73" target="w2HOxnU2GR0AyzulczZv-3" edge="1">
          <mxGeometry relative="1" as="geometry" />
        </mxCell>
        <mxCell id="w2HOxnU2GR0AyzulczZv-83" style="edgeStyle=orthogonalEdgeStyle;rounded=0;orthogonalLoop=1;jettySize=auto;html=1;exitX=0;exitY=1;exitDx=0;exitDy=0;exitPerimeter=0;entryX=0;entryY=0.5;entryDx=0;entryDy=0;entryPerimeter=0;endArrow=none;endFill=0;startArrow=classic;startFill=1;dashed=1;fillColor=#6a00ff;strokeColor=#3700CC;" parent="w2HOxnU2GR0AyzulczZv-113" source="w2HOxnU2GR0AyzulczZv-73" edge="1">
          <mxGeometry relative="1" as="geometry">
            <mxPoint x="200" y="305" as="sourcePoint" />
            <mxPoint x="400" y="595" as="targetPoint" />
            <Array as="points">
              <mxPoint x="200" y="350" />
              <mxPoint x="360" y="350" />
              <mxPoint x="360" y="595" />
            </Array>
          </mxGeometry>
        </mxCell>
        <mxCell id="w2HOxnU2GR0AyzulczZv-73" value="Event.cs" style="shape=note;whiteSpace=wrap;html=1;backgroundOutline=1;darkOpacity=0.05;" parent="w2HOxnU2GR0AyzulczZv-113" vertex="1">
          <mxGeometry x="200" y="200" width="80" height="100" as="geometry" />
        </mxCell>
        <mxCell id="w2HOxnU2GR0AyzulczZv-85" style="edgeStyle=orthogonalEdgeStyle;rounded=0;orthogonalLoop=1;jettySize=auto;html=1;exitX=0;exitY=0;exitDx=25;exitDy=0;exitPerimeter=0;entryX=1;entryY=1;entryDx=0;entryDy=0;entryPerimeter=0;dashed=1;fillColor=#6a00ff;strokeColor=#3700CC;" parent="w2HOxnU2GR0AyzulczZv-113" source="w2HOxnU2GR0AyzulczZv-41" target="w2HOxnU2GR0AyzulczZv-73" edge="1">
          <mxGeometry relative="1" as="geometry" />
        </mxCell>
        <mxCell id="w2HOxnU2GR0AyzulczZv-74" value="The base type of any event.&amp;nbsp;&lt;br&gt;Implements own error handling" style="text;html=1;strokeColor=none;fillColor=none;align=center;verticalAlign=middle;whiteSpace=wrap;rounded=0;" parent="w2HOxnU2GR0AyzulczZv-113" vertex="1">
          <mxGeometry x="280" y="230" width="160" height="70" as="geometry" />
        </mxCell>
        <mxCell id="w2HOxnU2GR0AyzulczZv-75" value="" style="shape=card;whiteSpace=wrap;html=1;" parent="w2HOxnU2GR0AyzulczZv-113" vertex="1">
          <mxGeometry x="200" y="40" width="80" height="100" as="geometry" />
        </mxCell>
        <mxCell id="w2HOxnU2GR0AyzulczZv-76" value="" style="shape=card;whiteSpace=wrap;html=1;" parent="w2HOxnU2GR0AyzulczZv-113" vertex="1">
          <mxGeometry x="210" y="40" width="80" height="100" as="geometry" />
        </mxCell>
        <mxCell id="w2HOxnU2GR0AyzulczZv-96" style="edgeStyle=orthogonalEdgeStyle;rounded=0;orthogonalLoop=1;jettySize=auto;html=1;entryX=0;entryY=0;entryDx=50;entryDy=0;entryPerimeter=0;endArrow=none;endFill=0;startArrow=classic;startFill=1;dashed=1;" parent="w2HOxnU2GR0AyzulczZv-113" source="w2HOxnU2GR0AyzulczZv-77" target="w2HOxnU2GR0AyzulczZv-41" edge="1">
          <mxGeometry relative="1" as="geometry">
            <Array as="points">
              <mxPoint x="670" y="90" />
            </Array>
          </mxGeometry>
        </mxCell>
        <mxCell id="w2HOxnU2GR0AyzulczZv-77" value="" style="shape=card;whiteSpace=wrap;html=1;" parent="w2HOxnU2GR0AyzulczZv-113" vertex="1">
          <mxGeometry x="220" y="40" width="80" height="100" as="geometry" />
        </mxCell>
        <mxCell id="w2HOxnU2GR0AyzulczZv-79" value="Implementations of Event.cs" style="text;html=1;strokeColor=none;fillColor=none;align=center;verticalAlign=middle;whiteSpace=wrap;rounded=0;" parent="w2HOxnU2GR0AyzulczZv-113" vertex="1">
          <mxGeometry x="300" y="100" width="100" height="40" as="geometry" />
        </mxCell>
        <mxCell id="w2HOxnU2GR0AyzulczZv-81" value="" style="endArrow=none;dashed=1;html=1;rounded=0;entryX=0;entryY=1;entryDx=0;entryDy=0;entryPerimeter=0;exitX=0;exitY=0;exitDx=25;exitDy=0;exitPerimeter=0;startArrow=classic;startFill=1;fillColor=#6a00ff;strokeColor=#3700CC;" parent="w2HOxnU2GR0AyzulczZv-113" source="w2HOxnU2GR0AyzulczZv-73" target="w2HOxnU2GR0AyzulczZv-77" edge="1">
          <mxGeometry width="50" height="50" relative="1" as="geometry">
            <mxPoint x="320" y="210" as="sourcePoint" />
            <mxPoint x="370" y="160" as="targetPoint" />
          </mxGeometry>
        </mxCell>
        <mxCell id="w2HOxnU2GR0AyzulczZv-111" style="edgeStyle=orthogonalEdgeStyle;rounded=0;orthogonalLoop=1;jettySize=auto;html=1;exitX=0;exitY=0;exitDx=25;exitDy=0;exitPerimeter=0;entryX=1;entryY=1;entryDx=0;entryDy=0;entryPerimeter=0;fillColor=#1ba1e2;strokeColor=#006EAF;dashed=1;endArrow=none;endFill=0;startArrow=classic;startFill=1;" parent="w2HOxnU2GR0AyzulczZv-113" source="w2HOxnU2GR0AyzulczZv-101" target="w2HOxnU2GR0AyzulczZv-3" edge="1">
          <mxGeometry relative="1" as="geometry">
            <Array as="points">
              <mxPoint x="665" y="520" />
              <mxPoint x="480" y="520" />
            </Array>
          </mxGeometry>
        </mxCell>
        <mxCell id="w2HOxnU2GR0AyzulczZv-112" style="edgeStyle=orthogonalEdgeStyle;rounded=0;orthogonalLoop=1;jettySize=auto;html=1;entryX=1;entryY=1;entryDx=0;entryDy=0;entryPerimeter=0;fillColor=#1ba1e2;strokeColor=#006EAF;startArrow=classic;startFill=1;endArrow=none;endFill=0;dashed=1;" parent="w2HOxnU2GR0AyzulczZv-113" source="w2HOxnU2GR0AyzulczZv-101" target="w2HOxnU2GR0AyzulczZv-41" edge="1">
          <mxGeometry relative="1" as="geometry" />
        </mxCell>
        <mxCell id="w2HOxnU2GR0AyzulczZv-101" value="EventEnum.cs&lt;br&gt;(enum)" style="shape=note;whiteSpace=wrap;html=1;backgroundOutline=1;darkOpacity=0.05;" parent="w2HOxnU2GR0AyzulczZv-113" vertex="1">
          <mxGeometry x="640" y="640" width="80" height="100" as="geometry" />
        </mxCell>
        <mxCell id="w2HOxnU2GR0AyzulczZv-110" style="edgeStyle=orthogonalEdgeStyle;rounded=0;orthogonalLoop=1;jettySize=auto;html=1;exitX=0;exitY=1;exitDx=0;exitDy=0;entryX=0;entryY=0.5;entryDx=0;entryDy=0;entryPerimeter=0;dashed=1;" parent="w2HOxnU2GR0AyzulczZv-113" source="w2HOxnU2GR0AyzulczZv-21" target="w2HOxnU2GR0AyzulczZv-101" edge="1">
          <mxGeometry relative="1" as="geometry" />
        </mxCell>
        <mxCell id="w2HOxnU2GR0AyzulczZv-104" style="edgeStyle=orthogonalEdgeStyle;rounded=0;orthogonalLoop=1;jettySize=auto;html=1;exitX=0;exitY=0;exitDx=25;exitDy=0;exitPerimeter=0;entryX=0;entryY=0;entryDx=80;entryDy=30;entryPerimeter=0;startArrow=classic;startFill=1;" parent="w2HOxnU2GR0AyzulczZv-113" source="w2HOxnU2GR0AyzulczZv-3" target="w2HOxnU2GR0AyzulczZv-73" edge="1">
          <mxGeometry relative="1" as="geometry">
            <mxPoint x="520" y="320" as="targetPoint" />
            <Array as="points">
              <mxPoint x="425" y="340" />
              <mxPoint x="460" y="340" />
              <mxPoint x="460" y="230" />
            </Array>
          </mxGeometry>
        </mxCell>
        <mxCell id="w2HOxnU2GR0AyzulczZv-108" value="A lot of components in the appplication is dependent on Event.cs while Event.cs is not dependent on anything" style="text;html=1;strokeColor=none;fillColor=none;align=center;verticalAlign=middle;whiteSpace=wrap;rounded=0;" parent="w2HOxnU2GR0AyzulczZv-113" vertex="1">
          <mxGeometry x="20" y="200" width="180" height="110" as="geometry" />
        </mxCell>
        <mxCell id="3jPGnn16u3qIRGqG-PNF-1" value="IApplicationSettings.cs" style="shape=note;whiteSpace=wrap;html=1;backgroundOutline=1;darkOpacity=0.05;fontSize=8;" parent="w2HOxnU2GR0AyzulczZv-113" vertex="1">
          <mxGeometry x="40" y="560" width="80" height="100" as="geometry" />
        </mxCell>
        <mxCell id="3jPGnn16u3qIRGqG-PNF-2" value="The settings are stored in the application root in an .ini file and is read in the Program.cs file by IFileParser.cs" style="text;html=1;strokeColor=none;fillColor=none;align=center;verticalAlign=middle;whiteSpace=wrap;rounded=0;" parent="w2HOxnU2GR0AyzulczZv-113" vertex="1">
          <mxGeometry x="120" y="570" width="160" height="90" as="geometry" />
        </mxCell>
        <mxCell id="kInsRfO5-UbqB_JnvOEW-1" value="Logger.cs" style="shape=card;whiteSpace=wrap;html=1;" parent="w2HOxnU2GR0AyzulczZv-113" vertex="1">
          <mxGeometry x="840" y="80" width="80" height="100" as="geometry" />
        </mxCell>
        <mxCell id="kInsRfO5-UbqB_JnvOEW-2" value="Use dependency injection where the logger is always optional." style="text;html=1;strokeColor=none;fillColor=none;align=center;verticalAlign=middle;whiteSpace=wrap;rounded=0;" parent="w2HOxnU2GR0AyzulczZv-113" vertex="1">
          <mxGeometry x="920" y="120" width="110" height="60" as="geometry" />
        </mxCell>
        <mxCell id="kInsRfO5-UbqB_JnvOEW-4" value="Used by every and any script" style="text;html=1;strokeColor=none;fillColor=none;align=center;verticalAlign=middle;whiteSpace=wrap;rounded=0;" parent="w2HOxnU2GR0AyzulczZv-113" vertex="1">
          <mxGeometry x="840" y="180" width="80" height="40" as="geometry" />
        </mxCell>
        <mxCell id="w2HOxnU2GR0AyzulczZv-147" value="Application Injected Dependencies" style="swimlane;whiteSpace=wrap;html=1;" parent="1" vertex="1">
          <mxGeometry x="240" y="1320" width="360" height="400" as="geometry" />
        </mxCell>
        <mxCell id="w2HOxnU2GR0AyzulczZv-120" value="IApplication" style="rounded=1;whiteSpace=wrap;html=1;" parent="w2HOxnU2GR0AyzulczZv-147" vertex="1">
          <mxGeometry x="180" y="50" width="120" height="310" as="geometry" />
        </mxCell>
        <mxCell id="w2HOxnU2GR0AyzulczZv-130" value="«interface»&lt;br&gt;&lt;b&gt;IRandomPicker&lt;/b&gt;" style="html=1;whiteSpace=wrap;" parent="w2HOxnU2GR0AyzulczZv-147" vertex="1">
          <mxGeometry x="30" y="40" width="110" height="50" as="geometry" />
        </mxCell>
        <mxCell id="w2HOxnU2GR0AyzulczZv-134" value="«interface»&lt;br&gt;&lt;b&gt;IEventFactory&lt;/b&gt;" style="html=1;whiteSpace=wrap;" parent="w2HOxnU2GR0AyzulczZv-147" vertex="1">
          <mxGeometry x="30" y="120" width="110" height="50" as="geometry" />
        </mxCell>
        <mxCell id="w2HOxnU2GR0AyzulczZv-136" value="" style="rounded=0;orthogonalLoop=1;jettySize=auto;html=1;endArrow=halfCircle;endFill=0;endSize=6;strokeWidth=1;sketch=0;" parent="w2HOxnU2GR0AyzulczZv-147" target="w2HOxnU2GR0AyzulczZv-138" edge="1">
          <mxGeometry relative="1" as="geometry">
            <mxPoint x="180" y="65" as="sourcePoint" />
          </mxGeometry>
        </mxCell>
        <mxCell id="w2HOxnU2GR0AyzulczZv-137" value="" style="rounded=0;orthogonalLoop=1;jettySize=auto;html=1;endArrow=oval;endFill=0;sketch=0;sourcePerimeterSpacing=0;targetPerimeterSpacing=0;endSize=10;" parent="w2HOxnU2GR0AyzulczZv-147" target="w2HOxnU2GR0AyzulczZv-138" edge="1">
          <mxGeometry relative="1" as="geometry">
            <mxPoint x="140" y="65" as="sourcePoint" />
          </mxGeometry>
        </mxCell>
        <mxCell id="w2HOxnU2GR0AyzulczZv-138" value="" style="ellipse;whiteSpace=wrap;html=1;align=center;aspect=fixed;fillColor=none;strokeColor=none;resizable=0;perimeter=centerPerimeter;rotatable=0;allowArrows=0;points=[];outlineConnect=1;" parent="w2HOxnU2GR0AyzulczZv-147" vertex="1">
          <mxGeometry x="155" y="60" width="10" height="10" as="geometry" />
        </mxCell>
        <mxCell id="w2HOxnU2GR0AyzulczZv-139" value="«interface»&lt;br&gt;IEventRunner" style="html=1;whiteSpace=wrap;" parent="w2HOxnU2GR0AyzulczZv-147" vertex="1">
          <mxGeometry x="30" y="200" width="110" height="50" as="geometry" />
        </mxCell>
        <mxCell id="w2HOxnU2GR0AyzulczZv-140" value="" style="rounded=0;orthogonalLoop=1;jettySize=auto;html=1;endArrow=halfCircle;endFill=0;endSize=6;strokeWidth=1;sketch=0;" parent="w2HOxnU2GR0AyzulczZv-147" target="w2HOxnU2GR0AyzulczZv-142" edge="1">
          <mxGeometry relative="1" as="geometry">
            <mxPoint x="180" y="145" as="sourcePoint" />
          </mxGeometry>
        </mxCell>
        <mxCell id="w2HOxnU2GR0AyzulczZv-141" value="" style="rounded=0;orthogonalLoop=1;jettySize=auto;html=1;endArrow=oval;endFill=0;sketch=0;sourcePerimeterSpacing=0;targetPerimeterSpacing=0;endSize=10;" parent="w2HOxnU2GR0AyzulczZv-147" target="w2HOxnU2GR0AyzulczZv-142" edge="1">
          <mxGeometry relative="1" as="geometry">
            <mxPoint x="140" y="145" as="sourcePoint" />
          </mxGeometry>
        </mxCell>
        <mxCell id="w2HOxnU2GR0AyzulczZv-142" value="" style="ellipse;whiteSpace=wrap;html=1;align=center;aspect=fixed;fillColor=none;strokeColor=none;resizable=0;perimeter=centerPerimeter;rotatable=0;allowArrows=0;points=[];outlineConnect=1;" parent="w2HOxnU2GR0AyzulczZv-147" vertex="1">
          <mxGeometry x="155" y="140" width="10" height="10" as="geometry" />
        </mxCell>
        <mxCell id="w2HOxnU2GR0AyzulczZv-144" value="" style="rounded=0;orthogonalLoop=1;jettySize=auto;html=1;endArrow=halfCircle;endFill=0;endSize=6;strokeWidth=1;sketch=0;" parent="w2HOxnU2GR0AyzulczZv-147" target="w2HOxnU2GR0AyzulczZv-146" edge="1">
          <mxGeometry relative="1" as="geometry">
            <mxPoint x="180" y="225" as="sourcePoint" />
          </mxGeometry>
        </mxCell>
        <mxCell id="w2HOxnU2GR0AyzulczZv-145" value="" style="rounded=0;orthogonalLoop=1;jettySize=auto;html=1;endArrow=oval;endFill=0;sketch=0;sourcePerimeterSpacing=0;targetPerimeterSpacing=0;endSize=10;" parent="w2HOxnU2GR0AyzulczZv-147" target="w2HOxnU2GR0AyzulczZv-146" edge="1">
          <mxGeometry relative="1" as="geometry">
            <mxPoint x="140" y="225" as="sourcePoint" />
          </mxGeometry>
        </mxCell>
        <mxCell id="w2HOxnU2GR0AyzulczZv-146" value="" style="ellipse;whiteSpace=wrap;html=1;align=center;aspect=fixed;fillColor=none;strokeColor=none;resizable=0;perimeter=centerPerimeter;rotatable=0;allowArrows=0;points=[];outlineConnect=1;" parent="w2HOxnU2GR0AyzulczZv-147" vertex="1">
          <mxGeometry x="155" y="220" width="10" height="10" as="geometry" />
        </mxCell>
        <mxCell id="3jPGnn16u3qIRGqG-PNF-6" value="" style="rounded=0;orthogonalLoop=1;jettySize=auto;html=1;endArrow=halfCircle;endFill=0;endSize=6;strokeWidth=1;sketch=0;" parent="w2HOxnU2GR0AyzulczZv-147" target="3jPGnn16u3qIRGqG-PNF-8" edge="1">
          <mxGeometry relative="1" as="geometry">
            <mxPoint x="180" y="305" as="sourcePoint" />
          </mxGeometry>
        </mxCell>
        <mxCell id="3jPGnn16u3qIRGqG-PNF-7" value="" style="rounded=0;orthogonalLoop=1;jettySize=auto;html=1;endArrow=oval;endFill=0;sketch=0;sourcePerimeterSpacing=0;targetPerimeterSpacing=0;endSize=10;" parent="w2HOxnU2GR0AyzulczZv-147" target="3jPGnn16u3qIRGqG-PNF-8" edge="1">
          <mxGeometry relative="1" as="geometry">
            <mxPoint x="140" y="305" as="sourcePoint" />
          </mxGeometry>
        </mxCell>
        <mxCell id="3jPGnn16u3qIRGqG-PNF-8" value="" style="ellipse;whiteSpace=wrap;html=1;align=center;aspect=fixed;fillColor=none;strokeColor=none;resizable=0;perimeter=centerPerimeter;rotatable=0;allowArrows=0;points=[];outlineConnect=1;" parent="w2HOxnU2GR0AyzulczZv-147" vertex="1">
          <mxGeometry x="155" y="300" width="10" height="10" as="geometry" />
        </mxCell>
        <mxCell id="3jPGnn16u3qIRGqG-PNF-9" value="«interface»&lt;br&gt;IApplicationSettings" style="html=1;whiteSpace=wrap;" parent="w2HOxnU2GR0AyzulczZv-147" vertex="1">
          <mxGeometry x="30" y="280" width="110" height="50" as="geometry" />
        </mxCell>
        <mxCell id="w2HOxnU2GR0AyzulczZv-167" value="Testing configurations" style="swimlane;whiteSpace=wrap;html=1;" parent="1" vertex="1">
          <mxGeometry x="640" y="1320" width="840" height="640" as="geometry" />
        </mxCell>
        <mxCell id="w2HOxnU2GR0AyzulczZv-148" value="Application test" style="swimlane;whiteSpace=wrap;html=1;" parent="w2HOxnU2GR0AyzulczZv-167" vertex="1">
          <mxGeometry x="40" y="80" width="360" height="360" as="geometry" />
        </mxCell>
        <mxCell id="w2HOxnU2GR0AyzulczZv-149" value="SomeApplication" style="rounded=1;whiteSpace=wrap;html=1;" parent="w2HOxnU2GR0AyzulczZv-148" vertex="1">
          <mxGeometry x="180" y="50" width="120" height="270" as="geometry" />
        </mxCell>
        <mxCell id="w2HOxnU2GR0AyzulczZv-152" value="" style="rounded=0;orthogonalLoop=1;jettySize=auto;html=1;endArrow=halfCircle;endFill=0;endSize=6;strokeWidth=1;sketch=0;" parent="w2HOxnU2GR0AyzulczZv-148" target="w2HOxnU2GR0AyzulczZv-154" edge="1">
          <mxGeometry relative="1" as="geometry">
            <mxPoint x="180" y="65" as="sourcePoint" />
          </mxGeometry>
        </mxCell>
        <mxCell id="w2HOxnU2GR0AyzulczZv-153" value="" style="rounded=0;orthogonalLoop=1;jettySize=auto;html=1;endArrow=oval;endFill=0;sketch=0;sourcePerimeterSpacing=0;targetPerimeterSpacing=0;endSize=10;" parent="w2HOxnU2GR0AyzulczZv-148" target="w2HOxnU2GR0AyzulczZv-154" edge="1">
          <mxGeometry relative="1" as="geometry">
            <mxPoint x="140" y="65" as="sourcePoint" />
          </mxGeometry>
        </mxCell>
        <mxCell id="w2HOxnU2GR0AyzulczZv-154" value="" style="ellipse;whiteSpace=wrap;html=1;align=center;aspect=fixed;fillColor=none;strokeColor=none;resizable=0;perimeter=centerPerimeter;rotatable=0;allowArrows=0;points=[];outlineConnect=1;" parent="w2HOxnU2GR0AyzulczZv-148" vertex="1">
          <mxGeometry x="155" y="60" width="10" height="10" as="geometry" />
        </mxCell>
        <mxCell id="w2HOxnU2GR0AyzulczZv-156" value="" style="rounded=0;orthogonalLoop=1;jettySize=auto;html=1;endArrow=halfCircle;endFill=0;endSize=6;strokeWidth=1;sketch=0;" parent="w2HOxnU2GR0AyzulczZv-148" target="w2HOxnU2GR0AyzulczZv-158" edge="1">
          <mxGeometry relative="1" as="geometry">
            <mxPoint x="180" y="145" as="sourcePoint" />
          </mxGeometry>
        </mxCell>
        <mxCell id="w2HOxnU2GR0AyzulczZv-157" value="" style="rounded=0;orthogonalLoop=1;jettySize=auto;html=1;endArrow=oval;endFill=0;sketch=0;sourcePerimeterSpacing=0;targetPerimeterSpacing=0;endSize=10;" parent="w2HOxnU2GR0AyzulczZv-148" target="w2HOxnU2GR0AyzulczZv-158" edge="1">
          <mxGeometry relative="1" as="geometry">
            <mxPoint x="140" y="145" as="sourcePoint" />
          </mxGeometry>
        </mxCell>
        <mxCell id="w2HOxnU2GR0AyzulczZv-158" value="" style="ellipse;whiteSpace=wrap;html=1;align=center;aspect=fixed;fillColor=none;strokeColor=none;resizable=0;perimeter=centerPerimeter;rotatable=0;allowArrows=0;points=[];outlineConnect=1;" parent="w2HOxnU2GR0AyzulczZv-148" vertex="1">
          <mxGeometry x="155" y="140" width="10" height="10" as="geometry" />
        </mxCell>
        <mxCell id="w2HOxnU2GR0AyzulczZv-159" value="" style="rounded=0;orthogonalLoop=1;jettySize=auto;html=1;endArrow=halfCircle;endFill=0;endSize=6;strokeWidth=1;sketch=0;" parent="w2HOxnU2GR0AyzulczZv-148" target="w2HOxnU2GR0AyzulczZv-161" edge="1">
          <mxGeometry relative="1" as="geometry">
            <mxPoint x="180" y="225" as="sourcePoint" />
          </mxGeometry>
        </mxCell>
        <mxCell id="w2HOxnU2GR0AyzulczZv-160" value="" style="rounded=0;orthogonalLoop=1;jettySize=auto;html=1;endArrow=oval;endFill=0;sketch=0;sourcePerimeterSpacing=0;targetPerimeterSpacing=0;endSize=10;" parent="w2HOxnU2GR0AyzulczZv-148" target="w2HOxnU2GR0AyzulczZv-161" edge="1">
          <mxGeometry relative="1" as="geometry">
            <mxPoint x="140" y="225" as="sourcePoint" />
          </mxGeometry>
        </mxCell>
        <mxCell id="w2HOxnU2GR0AyzulczZv-161" value="" style="ellipse;whiteSpace=wrap;html=1;align=center;aspect=fixed;fillColor=none;strokeColor=none;resizable=0;perimeter=centerPerimeter;rotatable=0;allowArrows=0;points=[];outlineConnect=1;" parent="w2HOxnU2GR0AyzulczZv-148" vertex="1">
          <mxGeometry x="155" y="220" width="10" height="10" as="geometry" />
        </mxCell>
        <mxCell id="w2HOxnU2GR0AyzulczZv-163" value="StubRandomPicker" style="html=1;whiteSpace=wrap;" parent="w2HOxnU2GR0AyzulczZv-148" vertex="1">
          <mxGeometry x="30" y="40" width="110" height="50" as="geometry" />
        </mxCell>
        <mxCell id="w2HOxnU2GR0AyzulczZv-164" value="StubEventFactory" style="html=1;whiteSpace=wrap;" parent="w2HOxnU2GR0AyzulczZv-148" vertex="1">
          <mxGeometry x="30" y="120" width="110" height="50" as="geometry" />
        </mxCell>
        <mxCell id="w2HOxnU2GR0AyzulczZv-165" value="MockEventRunner" style="html=1;whiteSpace=wrap;" parent="w2HOxnU2GR0AyzulczZv-148" vertex="1">
          <mxGeometry x="30" y="200" width="110" height="50" as="geometry" />
        </mxCell>
        <mxCell id="3jPGnn16u3qIRGqG-PNF-10" value="" style="rounded=0;orthogonalLoop=1;jettySize=auto;html=1;endArrow=halfCircle;endFill=0;endSize=6;strokeWidth=1;sketch=0;" parent="w2HOxnU2GR0AyzulczZv-148" target="3jPGnn16u3qIRGqG-PNF-12" edge="1">
          <mxGeometry relative="1" as="geometry">
            <mxPoint x="180" y="295" as="sourcePoint" />
          </mxGeometry>
        </mxCell>
        <mxCell id="3jPGnn16u3qIRGqG-PNF-11" value="" style="rounded=0;orthogonalLoop=1;jettySize=auto;html=1;endArrow=oval;endFill=0;sketch=0;sourcePerimeterSpacing=0;targetPerimeterSpacing=0;endSize=10;" parent="w2HOxnU2GR0AyzulczZv-148" target="3jPGnn16u3qIRGqG-PNF-12" edge="1">
          <mxGeometry relative="1" as="geometry">
            <mxPoint x="140" y="295" as="sourcePoint" />
          </mxGeometry>
        </mxCell>
        <mxCell id="3jPGnn16u3qIRGqG-PNF-12" value="" style="ellipse;whiteSpace=wrap;html=1;align=center;aspect=fixed;fillColor=none;strokeColor=none;resizable=0;perimeter=centerPerimeter;rotatable=0;allowArrows=0;points=[];outlineConnect=1;" parent="w2HOxnU2GR0AyzulczZv-148" vertex="1">
          <mxGeometry x="155" y="290" width="10" height="10" as="geometry" />
        </mxCell>
        <mxCell id="3jPGnn16u3qIRGqG-PNF-13" value="StubSettings" style="html=1;whiteSpace=wrap;" parent="w2HOxnU2GR0AyzulczZv-148" vertex="1">
          <mxGeometry x="30" y="270" width="110" height="50" as="geometry" />
        </mxCell>
        <mxCell id="w2HOxnU2GR0AyzulczZv-170" value="IRandomPicker test" style="swimlane;whiteSpace=wrap;html=1;" parent="w2HOxnU2GR0AyzulczZv-167" vertex="1">
          <mxGeometry x="440" y="80" width="320" height="120" as="geometry" />
        </mxCell>
        <mxCell id="w2HOxnU2GR0AyzulczZv-172" value="" style="rounded=0;orthogonalLoop=1;jettySize=auto;html=1;endArrow=halfCircle;endFill=0;endSize=6;strokeWidth=1;sketch=0;" parent="w2HOxnU2GR0AyzulczZv-170" target="w2HOxnU2GR0AyzulczZv-174" edge="1">
          <mxGeometry relative="1" as="geometry">
            <mxPoint x="180" y="65" as="sourcePoint" />
          </mxGeometry>
        </mxCell>
        <mxCell id="w2HOxnU2GR0AyzulczZv-173" value="" style="rounded=0;orthogonalLoop=1;jettySize=auto;html=1;endArrow=oval;endFill=0;sketch=0;sourcePerimeterSpacing=0;targetPerimeterSpacing=0;endSize=10;" parent="w2HOxnU2GR0AyzulczZv-170" target="w2HOxnU2GR0AyzulczZv-174" edge="1">
          <mxGeometry relative="1" as="geometry">
            <mxPoint x="140" y="65" as="sourcePoint" />
          </mxGeometry>
        </mxCell>
        <mxCell id="w2HOxnU2GR0AyzulczZv-174" value="" style="ellipse;whiteSpace=wrap;html=1;align=center;aspect=fixed;fillColor=none;strokeColor=none;resizable=0;perimeter=centerPerimeter;rotatable=0;allowArrows=0;points=[];outlineConnect=1;" parent="w2HOxnU2GR0AyzulczZv-170" vertex="1">
          <mxGeometry x="155" y="60" width="10" height="10" as="geometry" />
        </mxCell>
        <mxCell id="w2HOxnU2GR0AyzulczZv-181" value="SomeRandomPicker" style="html=1;whiteSpace=wrap;" parent="w2HOxnU2GR0AyzulczZv-170" vertex="1">
          <mxGeometry x="30" y="40" width="110" height="50" as="geometry" />
        </mxCell>
        <mxCell id="w2HOxnU2GR0AyzulczZv-185" value="Tester" style="html=1;whiteSpace=wrap;" parent="w2HOxnU2GR0AyzulczZv-170" vertex="1">
          <mxGeometry x="180" y="40" width="110" height="50" as="geometry" />
        </mxCell>
        <mxCell id="w2HOxnU2GR0AyzulczZv-186" value="IEventFactory test" style="swimlane;whiteSpace=wrap;html=1;" parent="w2HOxnU2GR0AyzulczZv-167" vertex="1">
          <mxGeometry x="440" y="240" width="360" height="120" as="geometry">
            <mxRectangle x="440" y="240" width="140" height="30" as="alternateBounds" />
          </mxGeometry>
        </mxCell>
        <mxCell id="w2HOxnU2GR0AyzulczZv-187" value="" style="rounded=0;orthogonalLoop=1;jettySize=auto;html=1;endArrow=halfCircle;endFill=0;endSize=6;strokeWidth=1;sketch=0;" parent="w2HOxnU2GR0AyzulczZv-186" target="w2HOxnU2GR0AyzulczZv-189" edge="1">
          <mxGeometry relative="1" as="geometry">
            <mxPoint x="180" y="65" as="sourcePoint" />
          </mxGeometry>
        </mxCell>
        <mxCell id="w2HOxnU2GR0AyzulczZv-188" value="" style="rounded=0;orthogonalLoop=1;jettySize=auto;html=1;endArrow=oval;endFill=0;sketch=0;sourcePerimeterSpacing=0;targetPerimeterSpacing=0;endSize=10;" parent="w2HOxnU2GR0AyzulczZv-186" target="w2HOxnU2GR0AyzulczZv-189" edge="1">
          <mxGeometry relative="1" as="geometry">
            <mxPoint x="140" y="65" as="sourcePoint" />
          </mxGeometry>
        </mxCell>
        <mxCell id="w2HOxnU2GR0AyzulczZv-189" value="" style="ellipse;whiteSpace=wrap;html=1;align=center;aspect=fixed;fillColor=none;strokeColor=none;resizable=0;perimeter=centerPerimeter;rotatable=0;allowArrows=0;points=[];outlineConnect=1;" parent="w2HOxnU2GR0AyzulczZv-186" vertex="1">
          <mxGeometry x="155" y="60" width="10" height="10" as="geometry" />
        </mxCell>
        <mxCell id="w2HOxnU2GR0AyzulczZv-190" value="SomeEventFactory" style="html=1;whiteSpace=wrap;" parent="w2HOxnU2GR0AyzulczZv-186" vertex="1">
          <mxGeometry x="30" y="40" width="110" height="50" as="geometry" />
        </mxCell>
        <mxCell id="w2HOxnU2GR0AyzulczZv-191" value="Tester" style="html=1;whiteSpace=wrap;" parent="w2HOxnU2GR0AyzulczZv-186" vertex="1">
          <mxGeometry x="180" y="40" width="110" height="50" as="geometry" />
        </mxCell>
        <mxCell id="w2HOxnU2GR0AyzulczZv-192" value="IEventRunner test" style="swimlane;whiteSpace=wrap;html=1;" parent="w2HOxnU2GR0AyzulczZv-167" vertex="1">
          <mxGeometry x="440" y="400" width="360" height="120" as="geometry" />
        </mxCell>
        <mxCell id="w2HOxnU2GR0AyzulczZv-193" value="" style="rounded=0;orthogonalLoop=1;jettySize=auto;html=1;endArrow=halfCircle;endFill=0;endSize=6;strokeWidth=1;sketch=0;" parent="w2HOxnU2GR0AyzulczZv-192" target="w2HOxnU2GR0AyzulczZv-195" edge="1">
          <mxGeometry relative="1" as="geometry">
            <mxPoint x="180" y="65" as="sourcePoint" />
          </mxGeometry>
        </mxCell>
        <mxCell id="w2HOxnU2GR0AyzulczZv-194" value="" style="rounded=0;orthogonalLoop=1;jettySize=auto;html=1;endArrow=oval;endFill=0;sketch=0;sourcePerimeterSpacing=0;targetPerimeterSpacing=0;endSize=10;" parent="w2HOxnU2GR0AyzulczZv-192" target="w2HOxnU2GR0AyzulczZv-195" edge="1">
          <mxGeometry relative="1" as="geometry">
            <mxPoint x="140" y="65" as="sourcePoint" />
          </mxGeometry>
        </mxCell>
        <mxCell id="w2HOxnU2GR0AyzulczZv-195" value="" style="ellipse;whiteSpace=wrap;html=1;align=center;aspect=fixed;fillColor=none;strokeColor=none;resizable=0;perimeter=centerPerimeter;rotatable=0;allowArrows=0;points=[];outlineConnect=1;" parent="w2HOxnU2GR0AyzulczZv-192" vertex="1">
          <mxGeometry x="155" y="60" width="10" height="10" as="geometry" />
        </mxCell>
        <mxCell id="w2HOxnU2GR0AyzulczZv-196" value="SomeEventRunner" style="html=1;whiteSpace=wrap;" parent="w2HOxnU2GR0AyzulczZv-192" vertex="1">
          <mxGeometry x="30" y="40" width="110" height="50" as="geometry" />
        </mxCell>
        <mxCell id="w2HOxnU2GR0AyzulczZv-197" value="Tester" style="html=1;whiteSpace=wrap;" parent="w2HOxnU2GR0AyzulczZv-192" vertex="1">
          <mxGeometry x="180" y="40" width="110" height="50" as="geometry" />
        </mxCell>
        <mxCell id="w2HOxnU2GR0AyzulczZv-198" value="ResourceProvider test" style="swimlane;whiteSpace=wrap;html=1;" parent="w2HOxnU2GR0AyzulczZv-167" vertex="1">
          <mxGeometry x="40" y="480" width="360" height="120" as="geometry" />
        </mxCell>
        <mxCell id="w2HOxnU2GR0AyzulczZv-199" value="" style="rounded=0;orthogonalLoop=1;jettySize=auto;html=1;endArrow=halfCircle;endFill=0;endSize=6;strokeWidth=1;sketch=0;" parent="w2HOxnU2GR0AyzulczZv-198" target="w2HOxnU2GR0AyzulczZv-201" edge="1">
          <mxGeometry relative="1" as="geometry">
            <mxPoint x="180" y="65" as="sourcePoint" />
          </mxGeometry>
        </mxCell>
        <mxCell id="w2HOxnU2GR0AyzulczZv-200" value="" style="rounded=0;orthogonalLoop=1;jettySize=auto;html=1;endArrow=oval;endFill=0;sketch=0;sourcePerimeterSpacing=0;targetPerimeterSpacing=0;endSize=10;" parent="w2HOxnU2GR0AyzulczZv-198" target="w2HOxnU2GR0AyzulczZv-201" edge="1">
          <mxGeometry relative="1" as="geometry">
            <mxPoint x="140" y="65" as="sourcePoint" />
          </mxGeometry>
        </mxCell>
        <mxCell id="w2HOxnU2GR0AyzulczZv-201" value="" style="ellipse;whiteSpace=wrap;html=1;align=center;aspect=fixed;fillColor=none;strokeColor=none;resizable=0;perimeter=centerPerimeter;rotatable=0;allowArrows=0;points=[];outlineConnect=1;" parent="w2HOxnU2GR0AyzulczZv-198" vertex="1">
          <mxGeometry x="155" y="60" width="10" height="10" as="geometry" />
        </mxCell>
        <mxCell id="w2HOxnU2GR0AyzulczZv-202" value="SomeResourceProvider" style="html=1;whiteSpace=wrap;fontSize=9;" parent="w2HOxnU2GR0AyzulczZv-198" vertex="1">
          <mxGeometry x="30" y="40" width="110" height="50" as="geometry" />
        </mxCell>
        <mxCell id="w2HOxnU2GR0AyzulczZv-203" value="Tester" style="html=1;whiteSpace=wrap;" parent="w2HOxnU2GR0AyzulczZv-198" vertex="1">
          <mxGeometry x="180" y="40" width="110" height="50" as="geometry" />
        </mxCell>
      </root>
    </mxGraphModel>
  </diagram>
</mxfile>
